<svg width="512" height="256" xmlns="http://www.w3.org/2000/svg">

 <g>
  <title>Layer 1</title>
  <text font-style="normal" font-weight="bold" xml:space="preserve" text-anchor="start" font-family="'Grandstander'" font-size="50" id="svg_4" y="226.2" x="36.2125" stroke-width="0" stroke="#000" fill="#000000">Birthday Manager</text>
  <path id="svg_5" d="m261.2236,38.16923c2.6606,-4.81815 7.52844,-11.09457 -0.83507,-12.60874c-2.32975,-1.19598 -4.66025,-3.31227 -6.987,-0.95477c-5.17692,2.04508 -9.66469,4.90504 -4.21955,10.25749c2.41464,3.45663 4.61084,10.99864 7.34603,11.82927c1.63245,-2.80324 3.16171,-5.66536 4.69558,-8.52326l0,0.00001zm-11.43664,13.30352c-4.75248,-8.48225 -8.57691,-17.58214 -14.39373,-25.40715c-7.0747,-7.55359 -21.01441,-4.18645 -24.18224,5.55664c-4.20809,9.63271 4.87158,21.13386 15.15024,19.92819c7.7999,0.13064 15.64419,0.48187 23.42573,-0.07768zm39.49185,0.28635c10.10799,-1.35495 15.92077,-14.08006 10.16567,-22.52923c-5.09998,-9.01676 -19.7724,-9.33109 -24.89462,-0.16808c-4.43532,7.40786 -8.28493,15.14876 -12.35498,22.75971c8.99807,0.51448 18.08076,0.39447 27.08393,-0.06242l0,0.00001zm16.73983,10.84936c3.44587,-3.03206 16.78973,-6.60659 6.68375,-9.48616c-2.50348,-0.71041 -5.42219,-3.96946 -7.67217,-3.0776c-4.88576,6.07457 -12.39806,9.63819 -20.24159,9.26493c-1.53545,0.50472 -9.36702,-0.76762 -7.25101,0.67754c5.53333,3.15512 10.9273,6.58158 16.65072,9.38206c4.0088,-2.13502 7.89944,-4.48689 11.8303,-6.76077l0,0.00001zm-78.72651,1.71663c2.94679,-1.71663 5.89358,-3.43326 8.84036,-5.14989c-9.00737,-0.44756 -19.3155,0.85074 -26.12276,-6.39398c-1.91924,-2.14903 -3.75965,-4.60943 -6.41963,-1.90389c-3.18611,2.19503 -12.98618,4.44443 -5.44065,7.12396c6.57046,3.88135 13.0947,7.85739 19.82755,11.45158c3.20828,-1.50453 6.23253,-3.38489 9.31513,-5.12778l-0.00001,-0.00001zm43.1859,19.154c3.81871,-3.06826 13.0682,-5.99146 13.37722,-9.28398c-8.63371,-4.96828 -17.01595,-10.49993 -26.04852,-14.69931c-3.10845,-1.17932 -5.62867,0.6353 -8.13075,2.21141c-7.39873,4.40093 -14.97548,8.52872 -22.13345,13.31371c9.36133,5.78875 18.83518,11.40633 28.40118,16.8502c4.87918,-2.73667 9.69529,-5.5852 14.53433,-8.39202l0,-0.00001zm38.3108,9.57699c3.96169,-2.49965 7.92338,-4.9993 11.88509,-7.49897c-0.03243,-8.37215 0.10128,-16.74779 -0.12777,-25.11702c-7.99581,4.46156 -15.87791,9.1459 -23.62698,14.02358c-0.84752,8.63502 -0.4177,17.41284 -0.2335,26.09138c4.08894,-2.40903 8.07854,-4.98562 12.10315,-7.49897zm-92.91288,-5.27459c0.40236,-7.13656 1.26971,-15.27185 -7.3367,-17.3859c-5.43499,-2.53487 -12.96836,-9.02971 -17.15547,-8.96456c-0.13046,8.0413 -0.06141,16.08407 -0.07553,24.12607c8.02839,5.01016 15.91431,10.26152 24.11597,14.98441c0.79526,-4.14519 0.27539,-8.53932 0.45174,-12.76002zm57.49117,27.63189c4.74865,-2.99794 9.49729,-5.99588 14.24594,-8.99382c-0.02199,-8.64326 0.33541,-17.29895 -0.05519,-25.93293c-5.21879,1.49657 -11.18781,6.12251 -16.6861,8.99585c-4.11702,2.4116 -8.23407,4.82322 -12.3511,7.23484c0.08119,9.22889 -0.22194,18.47464 0.30024,27.68986c4.92175,-2.87575 9.71268,-5.97295 14.54619,-8.9938l0.00001,0zm-19.90598,-4.85114c0,-4.61498 0,-9.22996 0,-13.84492c-9.53281,-5.57095 -19.03511,-11.1947 -28.60509,-16.7016c-0.52922,8.82514 -0.22679,17.68346 -0.3066,26.52384c9.53069,5.96708 18.96261,12.09711 28.61386,17.86762c0.37556,-4.59863 0.23843,-9.23395 0.29782,-13.84494zm55.56464,18.55208c3.885,-2.58701 7.77001,-5.17403 11.65502,-7.76104c-0.1621,-8.20204 0.4002,-16.51508 -0.41762,-24.62662c-8.07934,4.60958 -15.87671,9.85747 -23.81205,14.77835c0.19063,8.4864 -0.39142,17.06997 0.48521,25.48386c4.09873,-2.51577 8.07261,-5.23116 12.08944,-7.87454zm-93.23561,-4.5982c-0.03162,-4.30044 -0.06328,-8.60089 -0.09491,-12.90132c-8.02628,-5.02152 -15.95145,-10.21102 -24.09831,-15.0351c-0.50984,8.23899 -0.21924,16.5101 -0.29592,24.7638c8.09699,5.35975 16.10289,10.86153 24.30845,16.05398c0.31439,-4.28099 0.15836,-8.59092 0.1807,-12.88135zm57.78217,28.26068c4.71606,-3.13211 9.43212,-6.26421 14.14818,-9.3963c-0.01095,-8.73348 0.16648,-17.47073 -0.06819,-26.20122c-9.60002,5.91929 -19.13582,11.94752 -28.6013,18.07955c-1.06974,8.43303 -0.37613,17.12775 -0.3777,25.65296c2.9378,1.78942 10.44922,-6.14108 14.899,-8.135l0,0.00001zm-20.1112,-3.73864c-0.57028,-6.02203 2.45269,-14.49837 -5.20107,-16.83293c-7.71853,-4.88875 -15.40603,-9.83086 -23.22613,-14.55597c-1.13981,8.26763 0.05228,16.88059 -0.8233,25.24937c9.37778,6.77918 19.00061,13.25993 28.79875,19.41468c0.78585,-4.3131 0.29708,-8.88181 0.45175,-13.27516l0,0.00001zm-32.79685,-1.59195c-11.41404,-7.61944 -22.82808,-15.23887 -34.24211,-22.85829c0.01294,-23.51463 -0.31195,-47.03492 0.1054,-70.54514c5.71561,-3.52665 11.79793,-6.41764 17.68011,-9.65326c-3.79929,-10.876 1.68234,-24.09265 12.6989,-28.16366c9.23499,-3.78922 20.36702,-0.36973 26.25477,7.60725c4.27652,-2.19327 8.55304,-4.38654 12.82956,-6.57981c4.29948,2.21311 8.59898,4.42623 12.89846,6.63933c6.16076,-7.30788 16.71579,-11.47831 25.86265,-7.38277c10.97936,3.85914 16.96388,17.04624 13.02648,27.90517c5.92547,3.34542 12.36783,5.95965 17.80081,10.04192c0.24085,23.37536 0.00216,46.75417 -0.01969,70.13097c-22.71117,15.02994 -45.05431,30.63362 -68.1342,45.0921c-6.71124,-0.00181 -12.50402,-7.28878 -18.73158,-10.24323c-6.02073,-3.9805 -12.02626,-7.98394 -18.02959,-11.99059l0.00003,-0.00001z" stroke-width="0" stroke="#000" fill="#000000"/>
 </g>
</svg>